<svg xmlns="http://www.w3.org/2000/svg" width="50" height="50"><path d="M9 45h32a4 4 0 0 0 4-4V9a4 4 0 0 0-4-4H9a4 4 0 0 0-4 4v32a4 4 0 0 0 4 4z" style="fill:none;stroke:#000;stroke-width:2;stroke-linecap:round;stroke-linejoin:round;stroke-miterlimit:10"/><path d="M11 20h6v19h-6z" style="fill:none;stroke:#000;stroke-width:2;stroke-linecap:round;stroke-linejoin:round;stroke-miterlimit:10"/><path d="M14 17h0c-1.8 0-3-1.133-3-2.533S12.2 12 14 12s2.925 1.067 3 2.467c0 1.4-1.125 2.533-3 2.533z" style="fill:none;stroke:#000;stroke-width:1.9758;stroke-linecap:round;stroke-linejoin:round;stroke-miterlimit:10"/><path d="M39 39h-6V29c0-2-1-4-3.5-4.043C27.022 24.913 26 27 26 29v10h-6V20h6v2.561S27.93 20 31.813 20C35.778 20 39 22.726 39 28.261V39z" style="fill:none;stroke:#000;stroke-width:2;stroke-linecap:round;stroke-linejoin:round;stroke-miterlimit:10"/></svg>