<svg xmlns="http://www.w3.org/2000/svg" xml:space="preserve" baseProfile="basic" viewBox="0 0 50 50"><circle cx="25" cy="25" r="22" style="fill:none;stroke:#000;stroke-width:2;stroke-miterlimit:10"/><path d="M34.088 16.035c.275 0 .521.045.729.146.473.227.714.734.641 1.499-.242 2.523-2.205 15.329-2.623 16.613-.358 1.098-.735 2.042-1.453 2.042-.718 0-1.502-.25-2.275-.803-.773-.552-5.906-3.995-6.619-4.444-.625-.394-1.286-1.377-.355-2.327.767-.782 6.585-6.429 7.082-6.926.37-.371.196-.818-.167-.818-.125 0-.273.053-.428.18-.608.497-9.085 6.169-9.819 6.625-.486.302-1.238.52-2.019.52a3.77 3.77 0 0 1-.995-.129c-1.128-.311-3.037-.89-3.795-1.16-.729-.26-.993-.51-.993-.956 0-.634.894-1.071 1.837-1.472.996-.423 18.231-7.742 19.579-8.227.624-.226 1.194-.363 1.673-.363m0-2c-.684 0-1.453.158-2.352.482-1.396.503-17.815 7.475-19.683 8.268-1.068.454-3.056 1.299-3.056 3.313 0 1.335.781 2.29 2.321 2.84.828.295 2.795.89 3.936 1.204.484.133.998.201 1.527.201 1.035 0 2.076-.258 2.892-.713-.007.168-.001.338.019.508.123 1.05.77 2.038 1.73 2.643.628.396 5.757 3.833 6.523 4.379 1.076.769 2.265 1.175 3.437 1.175 2.24 0 2.993-2.312 3.355-3.423.525-1.613 2.49-14.729 2.712-17.042.151-1.585-.51-2.891-1.768-3.493a3.642 3.642 0 0 0-1.593-.342z"/></svg>